<svg width="30" height="30" xmlns="http://www.w3.org/2000/svg" xmlns:svg="http://www.w3.org/2000/svg">
 <metadata id="metadata808">image/svg+xml</metadata>
 <g>
  <title>Layer 1</title>
  <g stroke="null" id="layer1">
   <g stroke="null" transform="matrix(0.27814359910546305,0,0,0.27814359910546305,3.0031221589818062,144.80967147961772) " id="g387">
    <path stroke="null" clip-rule="evenodd" fill="#fc9153" fill-rule="evenodd" class="st11" d="m43.59409,-442.55994c18,-0.6 32.2,-14.9 32.4,-32.6l0,-15.3l19.8,0l0,16.9c-0.4,27.5 -24.3,49.1 -52.2,49.7l0,0c-28.4,-0.2 -52.5,-22 -52.8,-49.7l0,-30.3c0,-3.1 2,-5.1 5,-5.1l80.2,0l0,18.5l-62.9,0c-1.6,0 -2.6,1 -2.6,2.6l0,12.4c0.2,17.9 14.7,32.7 33.1,32.9z" id="path385"/>
   </g>
  </g>
 </g>
</svg>