<svg id="Capa_1" data-name="Capa 1" xmlns="http://www.w3.org/2000/svg" viewBox="0 0 512 512"><defs><style>.cls-1{fill:#e7042a;}.cls-2{fill:#fff;}</style></defs><title>logosss</title><circle class="cls-1" cx="256" cy="256" r="256"/><path class="cls-2" d="M250.44,286.73v-112c17.11,0,33.3-.27,49.45.35,2,0.08,5,4.8,5.35,7.61,0.77,7.18.26,14.5,0.26,23.21H420.14c0,10.76,1,20.28-.57,29.36-0.49,2.86-7.73,6.41-11.94,6.49-28.25.58-56.52,0.3-84.79,0.31H306.75v44.65h63.72c33.43,0,33.43,0,33.43,33.84,0,21,.17,41.94-0.06,62.91-0.27,24.88-12.71,39.29-37.09,39.6-60.17.74-120.35,0.18-180.52,0.37-7.43,0-9.28-3.29-9.25-10,0.15-38.75.28-77.5-.09-116.24-0.08-8.92,4-10.7,11.62-10.59C208.52,286.91,228.54,286.73,250.44,286.73ZM231.5,325.25c0,20.38-.28,39.42.32,58.44,0.08,2.63,4.5,7.31,7,7.34,31.84,0.35,63.7.62,95.5-.71,5.07-.21,13.52-8,14-12.87,1.75-17,.67-34.26.67-52.2H231.5Z"/><path class="cls-2" d="M89.21,439.76c0.29-18.25-1.12-33.36,7.59-50,9.11-17.36,13-39,13.72-58.94,2.19-63.78,1.83-127.65,2.44-191.49,0.05-5.36,0-10.73,0-16.94H422.79v38.2H165.43c-0.37,6.28-.9,11.5-1,16.72-0.54,47.88-.28,95.79-1.76,143.64-0.86,27.94-7.23,55.1-23.13,78.85C127.46,417.9,110.93,430.78,89.21,439.76Z"/><path class="cls-2" d="M312.73,76.45C312,97.22,296,112,275.25,111c-18.86-.89-34.25-18.16-33.45-37.55,0.84-20.19,16.4-34.51,36.78-33.82A35.29,35.29,0,0,1,312.73,76.45Z"/></svg>