<svg id="Capa_1" data-name="Capa 1" xmlns="http://www.w3.org/2000/svg" viewBox="0 0 512 512"><defs><style>.cls-1{fill:#ff0b6a;}.cls-2{fill:#fff;}</style></defs><title>logosss</title><circle class="cls-1" cx="256" cy="256" r="256"/><path class="cls-2" d="M261,189.78c0-13.74,0-26.25,0-38.75,0-6.67-.05-13.33,0-20,0.25-24.77,17.56-43.09,40.8-43.22,22.93-.13,40.94,18.42,41.08,43.11,0.23,42.1,0,84.21,0,126.32,0,4.48,0,9,0,15.52,5.26-1.91,8.64-3.17,12-4.37,16.55-5.85,35.32.57,44.22,15.13s7.66,34.87-5.73,45.16c-35.83,27.53-70.87,56.73-109.45,79.9-57.78,34.7-134.69,9-164.49-51C89.38,296.89,116,223.87,178.9,196.07c22-9.7,45.26-12.12,69.08-8.08C251.67,188.61,255.41,189,261,189.78Zm22.27,116.06c0.87-30.5-23.53-56-54.31-56.67-31.42-.73-57.39,23.48-58.17,54.22s24.32,56.81,55.16,57.39C257.22,361.37,282.37,337.27,283.26,305.84Z"/><path class="cls-2" d="M111,252.68A122,122,0,0,1,176.27,190q0-10.68-.06-21.36c-0.11-24.26-14.44-42.51-32.68-42.38-18.49.13-32.27,18.14-32.47,42.49-0.05,6.55,0,13.11,0,19.66C111,197,111,229.42,111,252.68Z"/></svg>