<svg id="Capa_1" data-name="Capa 1" xmlns="http://www.w3.org/2000/svg" viewBox="0 0 512 512"><defs><style>.cls-1{fill:#f39800;}.cls-2{fill:#fff;}</style></defs><title>logosss</title><circle class="cls-1" cx="256" cy="256" r="256"/><path class="cls-2" d="M270.81,239.37a131,131,0,0,0,68-148.63l-43.49,10.81a86.3,86.3,0,1,1-167.44,41.87L84.38,154.27c14.7,58.89,67.11,98.26,125.07,99.23-67.17,31.13-104.56,108.43-85.38,185.39l51.86-13c-14.26-57.08,18.89-114.54,74.07-128.3s111.42,21.3,125.7,78.43l51.91-13c-18.77-74.9-85-124.86-156.81-123.65h0Z"/><path class="cls-2" d="M273.65,117.5a58.6,58.6,0,1,1-71-42.63A58.65,58.65,0,0,1,273.65,117.5Z"/></svg>