<svg id="Capa_1" data-name="Capa 1" xmlns="http://www.w3.org/2000/svg" viewBox="0 0 512 512"><defs><style>.cls-1{fill:#22a99d;}.cls-2{fill:#fff;}</style></defs><title>logosss</title><circle class="cls-1" cx="256" cy="256" r="256"/><path class="cls-2" d="M244.71,243.29H162.37V231.78H231V210.05H162.37V199.63H241V177.25l-45.84.44c2.61-2.82,15.43-23.47,13.47-23.68-13.47-1.09-16.51.22-24.77-.22-0.65-.65-4.78,9.34-18.47,23.68-2.39,0-35.63,1.09-35.63.43-7.17-5-11.73-12.6-18-23.9-1.74.65-8.69,0.43-25,1.74a112.35,112.35,0,0,0,13.47,21.73l-45.84-.22v22.38h78.43v10.43H65v21.73h67.79v11.51H51.13v22.38H244.71V243.29Z"/><path class="cls-2" d="M243.63,331.07c-41.71-2.61-61.27-14.77-75.82-28.46h76.48V280H159.55c0-4.56,1.09-8.47,1.09-12.82-3-1.09-20.64,0-25.64-.65A75.36,75.36,0,0,1,132,280H51.35v22.59H123.7c-13,17.16-35.41,28.9-74.74,31.29a96.16,96.16,0,0,0,1.3,24.55C94.15,351.71,133,337.59,148,312c16.08,20.86,46.06,42.8,97.33,42.58C245.58,347.36,248.62,331.29,243.63,331.07Z"/><path class="cls-2" d="M284.47,350.19h164a14.74,14.74,0,0,0,14.77-14.56V158.13H284.47V350.19Zm23.46-169.46H439.16V314.34a11.09,11.09,0,0,1-10.87,11.08H307.94V180.72Z"/><path class="cls-2" d="M409,231.13h23.68V209H409v-23.9H387.89V209h-74.3v22.16h53c-3.48,8.25-13,21.94-38.89,39.76a58.15,58.15,0,0,1-7.82,4.78v28s46.71-24.12,68-61V282c0,8.26,2.39,10.65-6.73,13.69-9.34,3-21.29,1.52-21.29,1.52l0.22,22.59,20.64-.22c17.81-.44,24.77-6.52,27.37-12.82,2.17-4.78.87-22.38,0.87-27.59v-48Z"/></svg>