<?xml version="1.0" encoding="utf-8"?>
<!-- Generator: Adobe Illustrator 22.0.0, SVG Export Plug-In . SVG Version: 6.00 Build 0)  -->
<svg version="1.1" id="Capa_1" xmlns="http://www.w3.org/2000/svg" xmlns:xlink="http://www.w3.org/1999/xlink" x="0px" y="0px"
	 viewBox="0 0 512 512" style="enable-background:new 0 0 512 512;" xml:space="preserve">
<style type="text/css">
	.st0{fill:#D8D8D8;}
</style>
<path class="st0" d="M455.5,142.4L316.4,3.9c-2.4-2.5-5.7-3.9-9.2-3.9h-189C81.9,0,52.5,29.4,52.5,65.6v380.7
	c0,36.3,29.4,65.6,65.6,65.6h275.7c36.3,0,65.6-29.4,65.6-65.6V151.6C459.4,148.2,458,144.9,455.5,142.4z M321.6,131.3V45.9
	l92.6,91.9h-86c-3.2,0.4-6.2-1.9-6.6-5.2C321.6,132.2,321.6,131.7,321.6,131.3z M433.2,446.4c0,21.8-17.6,39.4-39.4,39.4H118.2
	c-21.8,0-39.4-17.6-39.4-39.4V65.6c0-21.8,17.6-39.4,39.4-39.4h177.2v105c0,18.1,14.7,32.8,32.8,32.8h105V446.4z"/>
<g>
	<g>
		<path class="st0" d="M-115.9-22.3c-56.3,0-102.1,38.2-102.1,85c0,24.8,12.7,47.8,35,64.1l-8.6,17.1c-1.6,3.2-1,7,1.4,9.6
			c1.6,1.7,3.9,2.7,6.2,2.7c1.1,0,2.3-0.2,3.4-0.7l30.1-12.9c14.1,4.3,29.1,5.6,44.2,4.7c4.7-0.2,8.3-4.3,8-8.9
			c-0.3-4.7-4.7-8.6-8.9-8c-14.1,0.7-28.1-0.5-41.1-4.9c-2-0.6-4.1-0.5-6,0.3l-11.7,5l1.5-3.1c2-3.9,0.6-8.7-3.1-11
			c-21.2-13.3-33.4-32.9-33.4-54c0-37.5,38.2-68,85-68s85,30.5,85,68c0,2.6-0.1,4.9-0.5,7.3c-0.8,4.6,2.3,9,6.9,9.9
			c4.7,0.9,9-2.2,9.9-6.9c0.6-3.4,0.8-6.8,0.8-10.3C-13.9,15.8-59.6-22.3-115.9-22.3z"/>
	</g>
</g>
<path class="st0" d="M373.7,398.9c18.4-13,29.2-31.8,29.2-51.5c0-38-38.6-68.9-86.1-68.9s-86.1,30.9-86.1,68.9
	c0,42.1,46.8,76,101.7,67.7l41.3,17.7c1.1,0.4,2.3,0.7,3.4,0.7c2.3,0,4.6-0.9,6.3-2.7c2.5-2.6,3.1-6.5,1.4-9.7L373.7,398.9z
	 M356.3,386.5c-3.7,2.1-5.1,6.7-3.2,10.5l3.7,7.5l-20.4-8.8c-1-0.4-2.1-0.6-3.1-0.6c-0.5,0-0.9,0-1.4,0.1c-4.9,0.9-9.5,1.3-14.1,1.3
	c-35.2,0-63.8-21.5-63.8-47.8s28.6-47.8,63.8-47.8s63.8,21.5,63.8,47.8C381.7,363.5,372.5,377.3,356.3,386.5z"/>
<g>
	<g>
		<path class="st0" d="M196.9,239.1h-0.3c-8.5,0-15.3,6.9-15.3,15.5c0,8.5,7.1,15.5,15.6,15.5s15.5-6.9,15.5-15.5
			C212.4,246,205.5,239.1,196.9,239.1z"/>
	</g>
</g>
<g>
	<g>
		<path class="st0" d="M259.6,239.1h-0.3c-8.8,0-15.8,6.9-15.8,15.5c0,8.5,7.3,15.5,16.1,15.5c8.8,0,16-6.9,16-15.5
			C275.5,246,268.4,239.1,259.6,239.1z"/>
	</g>
</g>
<g>
	<g>
		<path class="st0" d="M293.9,321.1h-0.2c-6.5,0-11.6,5.3-11.6,11.7s5.4,11.7,11.9,11.7s11.7-5.3,11.7-11.7S300.4,321.1,293.9,321.1
			z"/>
	</g>
</g>
<g>
	<g>
		<path class="st0" d="M344.9,321.1h-0.2c-6.5,0-11.6,5.3-11.6,11.7s5.4,11.7,11.9,11.7c6.5,0,11.7-5.3,11.7-11.7
			S351.4,321.1,344.9,321.1z"/>
	</g>
</g>
<path class="st0" d="M239.2,329.7c-3.2,0.3-6.5,0.5-9.8,0.5c-5.8,0-11.7-0.5-17.9-1.6c-0.6-0.1-1.1-0.1-1.7-0.1
	c-1.4,0-2.7,0.3-4,0.8l-26,11.2l4.7-9.5c2.4-4.8,0.6-10.7-4-13.4C159.8,305.7,148,288,148,269.1c0-33.7,36.5-61,81.4-61
	s81.4,27.4,81.4,61c0,5.6-1,11.1-2.9,16.2c1.9,0,3.7,0.1,5.6,0.2c8.2-2.4,16.7-2.1,24.1,2.7c2-6.6,3.1-13.6,3.1-20.7
	c0-48.5-49.3-87.9-109.8-87.9c-60.6,0-109.8,39.4-109.8,87.9c0,25.1,13.7,49.1,37.2,65.7L144,361.5c-2.1,4.1-1.3,9.1,1.8,12.4
	c2.1,2.3,5,3.5,8,3.5c1.4,0,2.9-0.3,4.3-0.9l52.7-22.6c10.7,1.6,21.1,2,31.1,1.2C239.9,346.8,238,338.2,239.2,329.7z"/>
</svg>
