<?xml version="1.0" encoding="utf-8"?>
<!-- Generator: Adobe Illustrator 22.0.0, SVG Export Plug-In . SVG Version: 6.00 Build 0)  -->
<svg version="1.1" id="Capa_1" xmlns="http://www.w3.org/2000/svg" xmlns:xlink="http://www.w3.org/1999/xlink" x="0px" y="0px"
	 viewBox="0 0 512 512" style="enable-background:new 0 0 512 512;" xml:space="preserve">
<style type="text/css">
	.st0{fill:#E64340;}
</style>
<g>
	<path class="st0" d="M256,0C114.8,0,0,114.9,0,256c0,141.1,114.8,256,256,256c141.1,0,256-114.9,256-256C512,114.9,397.1,0,256,0z
		 M256,464.5C141,464.5,47.5,371,47.5,256C47.5,141,141,47.5,256,47.5S464.5,141,464.5,256C464.5,371,371,464.5,256,464.5z"/>
	<path class="st0" d="M354.5,323.7L286.8,256l67.7-67.7c8.5-8.5,8.5-22.3,0-30.8s-22.3-8.5-30.8,0L256,225.2l-67.7-67.7
		c-8.5-8.5-22.3-8.5-30.8,0c-8.5,8.5-8.5,22.3,0,30.8l67.7,67.7l-67.7,67.7c-8.5,8.5-8.5,22.3,0,30.8c8.5,8.5,22.3,8.5,30.8,0
		l67.7-67.7l67.7,67.7c8.5,8.5,22.3,8.5,30.8,0C363,346,363,332.2,354.5,323.7z"/>
</g>
</svg>
